PathFileType	4	(X/Y/Z)	RBDS017\RBDS017runT35.trc
DataRate	CameraRate	NumFrames	NumMarkers	Units	OrigDataRate	OrigDataStartFrame	OrigNumFrames
150.000000	150.000000	4	33	mm	150.000000	3375	4500
Frame#	Time	L.ASIS			L.Heel.Bottom			L.Heel.Lateral			L.Heel.Top			L.Iliac.Crest			L.MT1			L.MT5			L.PSIS			L.Shank.Bottom.Lateral			L.Shank.Bottom.Medial			L.Shank.Top.Lateral			L.Shank.Top.Medial			L.Thigh.Bottom.Lateral			L.Thigh.Bottom.Medial			L.Thigh.Top.Lateral			L.Thigh.Top.Medial			R.ASIS			R.ASY			R.Heel.Bottom			R.Heel.Lateral			R.Heel.Top			R.Iliac.Crest			R.MT1			R.MT5			R.PSIS			R.Shank.Bottom.Lateral			R.Shank.Bottom.Medial			R.Shank.Top.Lateral			R.Shank.Top.Medial			R.Thigh.Bottom.Lateral			R.Thigh.Bottom.Medial			R.Thigh.Top.Lateral			R.Thigh.Top.Medial			
		X1	Y1	Z1	X2	Y2	Z2	X3	Y3	Z3	X4	Y4	Z4	X5	Y5	Z5	X6	Y6	Z6	X7	Y7	Z7	X8	Y8	Z8	X9	Y9	Z9	X10	Y10	Z10	X11	Y11	Z11	X12	Y12	Z12	X13	Y13	Z13	X14	Y14	Z14	X15	Y15	Z15	X16	Y16	Z16	X17	Y17	Z17	X18	Y18	Z18	X19	Y19	Z19	X20	Y20	Z20	X21	Y21	Z21	X22	Y22	Z22	X23	Y23	Z23	X24	Y24	Z24	X25	Y25	Z25	X26	Y26	Z26	X27	Y27	Z27	X28	Y28	Z28	X29	Y29	Z29	X30	Y30	Z30	X31	Y31	Z31	X32	Y32	Z32	X33	Y33	Z33	

3376	22.5	2173.228334987309	1003.76058447289	838.9850056507196	1805.661370746973	50.09049853531477	944.1983540271757	1823.43141941351	69.84292835210707	906.1738647615859	1819.875133660976	94.18518446071185	948.1528778644113	2099.277924483196	1092.921063148776	803.3654761037527	2035.410755283231	43.12427857188807	943.0103868042172	1978.323892847549	41.98175277548214	840.8165943000258	2004.314884910298	1082.021606895428	939.8770105828767	1936.329340293016	188.4755271611367	881.6240091562429	1897.204003788437	212.7023316021026	912.0814425394218	1966.580748375974	260.7821261126394	863.54261459458	1928.493526710816	284.956884875988	892.9235303065406	2120.881068645117	625.3449781755713	819.8973582275825	2056.038538132353	614.4540159651351	850.7714174372794	2093.865773110736	731.7454262951368	807.6220984490378	2033.926905111221	722.3364353627783	839.4897426846393	2169.891233013735	997.160396058243	1130.740710020804	1829.218700803892	292.6443228698491	1078.862960137852	1792.766331089086	494.3476243230006	1058.881125182318	1805.269305911426	469.7804792346761	1102.640279106991	1837.696042500093	481.6611155906836	1067.872889059379	2113.315806553223	1085.898450853721	1166.763509880641	1805.020121359032	271.7711707788356	1029.184346808001	1773.770534819997	308.5325550618462	1134.869134012998	2006.245332816454	1075.070809258087	1038.325741837152	1935.738723759717	449.6957398563231	1129.311067849812	1929.907377270393	485.6445493737103	1093.073227772849	2014.837973813314	477.7035310469013	1142.261224869647	2004.258720969442	515.0137139081344	1105.894330525973	2215.950441519717	638.1192074215152	1167.914044856646	2168.28709876751	608.3680487173359	1120.930142313207	2154.494272059951	728.8886147035961	1168.778489581997	2108.798863753042	700.6075527323629	1124.754030225649	
3377	22.50666666666667	2174.784217435817	1006.891262986886	839.6002297538441	1782.679839693736	55.94793431831902	943.507164705013	1800.906538491339	74.77108369330659	905.2180062896446	1797.704336836251	99.73516597832844	946.8945258134744	2102.610485187001	1096.43799938744	803.2933097517914	2011.38792229654	43.13139025446796	942.825516911548	1954.631416692078	42.09371000348451	840.6564301958531	2005.796270725226	1086.284352116892	938.8871545122207	1914.996603789131	192.7864467368717	880.6058657624186	1876.094521814744	217.1914000973882	911.3401504684615	1945.793294042644	264.9038641815605	862.7734521898152	1907.870542035146	289.2717729189376	892.3307567133662	2108.070939129669	628.0325150530156	820.218660071242	2042.807955683518	619.6258049551908	850.97520390872	2085.08729696291	735.3592550135941	807.8773149407201	2024.97530616032	728.3096912354366	840.0081982580657	2170.410013148157	1002.20464160129	1130.650165611885	1851.173309508127	280.1746121101824	1078.8033752294	1802.977777963342	478.9609959990455	1056.844561455103	1816.991668575576	455.636606313839	1100.769525505707	1848.612999141316	469.0645720022583	1065.927209687237	2113.532904355792	1091.062614534384	1166.632552092435	1828.713394378172	257.4528829662793	1029.147992594397	1795.171350110815	293.1611161379203	1134.535625693061	2007.064785728781	1079.534351753199	1037.764426274225	1948.900009757166	442.38997420116	1128.014606186555	1941.264427469446	478.0248712473093	1091.788977777971	2026.469299330671	474.3522500224464	1141.062762459238	2014.004369939883	511.1769468739677	1104.751576051687	2224.056223163355	646.3263867983218	1167.594408309665	2177.210819348453	615.5048756372298	1120.39460766012	2160.25768106131	735.3411395615352	1168.966343857951	2114.972371861742	705.8927662940712	1125.223343367836	
3378	22.51333333333334	2176.453913313692	1010.31103822838	840.2456907896202	1760.266897252803	63.04688221158815	942.7003085558838	1779.025631516019	80.71115503481161	904.1201923724979	1776.338531846434	106.3836351886837	945.434393104456	2106.533652914222	1100.319455126717	803.3870271039806	1987.479338799275	43.26997367453538	942.6557969307761	1931.142746298067	42.34980718426814	840.4780948140115	2007.530933175646	1090.927194615527	937.9637317472802	1894.172594641605	197.9243392540359	879.3983109128968	1855.504397627302	222.3978878446754	910.4921701295921	1925.361271195789	269.9354406524	861.8600025707264	1887.606426204698	294.3905934679063	891.6676261703551	2095.204835396209	631.6428961521304	820.5361348219633	2029.693239410384	625.8020001915162	851.3340510837293	2076.328703256208	739.7414127037671	808.141512495071	2016.217102423278	735.1231503485154	840.6452612487934	2171.328712672942	1007.67286828186	1130.439122479504	1873.797723307238	267.435166043624	1078.849499582536	1813.718670141196	462.443620781749	1054.488895158976	1829.129202959528	440.5491871819521	1098.631286107764	1859.877350415631	455.4931943869615	1063.764380316622	2114.539242666991	1096.666619890516	1166.417252209196	1853.318367262578	242.8698388122926	1029.215103720653	1817.284709711352	277.4872207710544	1134.19097501052	2008.143285838295	1084.397817258355	1037.2899585204	1962.059212139297	434.6226099196042	1126.606122106294	1952.590459085296	469.7689482196627	1090.333748141501	2037.804246932009	470.6629041828315	1139.756765364362	2023.41548795115	506.8215619449514	1103.447519146517	2231.669996499837	654.868495172219	1167.370472258536	2185.524872163527	623.1323254963444	1120.004550533975	2165.823409928003	742.2354365935375	1169.333717799261	2120.847335098126	711.7721347849716	1125.913592206839	
3379	22.52	2178.234356366223	1013.96473929789	840.9302571899198	1738.596236576209	71.39451566875698	941.7634740703238	1757.941525025824	87.66007614440089	902.8713624451343	1755.954525290629	114.1093514070045	943.758351674736	2111.052886453184	1104.571157981575	803.6639715835502	1963.77813936748	43.54528085465393	942.4918256122919	1907.929565723863	42.7538227838272	840.2758082409562	2009.512127795562	1095.890874542544	937.1001207732268	1873.990044176865	203.8381559809437	877.9639318060915	1835.596370364284	228.260978093663	909.5245731656952	1905.423611739761	275.8253129288601	860.782438492119	1867.869125570455	300.2533433058751	890.9370570205579	2082.422602869186	636.1086921180054	820.79769418636	2016.835775978041	632.8795956827536	851.785740001671	2067.694374601801	744.8156318883375	808.3769822643586	2007.752312888349	742.6677083570102	841.342403247131	2172.622800447019	1013.521040876002	1130.113927112189	1897.144729914964	254.5548543821312	1078.993584562022	1825.171676708628	444.9186421651071	1051.899374849657	1841.831086721692	424.6051319936152	1096.302092902814	1871.65372289131	441.0363113475975	1061.458198984496	2116.190764968962	1102.656538788576	1166.150182269378	1878.852418061543	228.2030520621426	1029.38921931194	1840.142441933534	261.6245979503575	1133.839320294306	2009.470288274837	1089.603248152634	1036.887723582766	1975.302410478852	426.4159658067661	1125.118897652635	1964.010649490035	460.8856613623395	1088.729041560003	2048.916184456821	466.6099208438622	1138.359963612301	2032.603657946557	501.9031043226057	1101.98443467931	2238.75968705327	663.5901912268192	1167.214798500447	2193.16628543595	631.0832265398664	1119.765433610947	2171.158731451965	749.4537009627336	1169.847726556571	2126.378965872419	718.1225241698239	1126.799138679505	
